#N canvas 699 163 906 822 12;
#X obj 103 160 hsl 128 20 0 255 0 0 azul_send azul_receive empty -2 -10 0 12 #ffffff #0400ff #000000 0 1;
#X obj 79 247 t b f;
#X obj 103 120 hsl 128 20 0 255 0 0 rojo_send rojo_receive empty -2 -10 0 12 #ffffff #ff0400 #000000 0 1;
#X obj 103 140 hsl 128 20 0 255 0 0 verde_send verde_receive empty -2 -10 0 12 #ffffff #00ff04 #000000 0 1;
#X obj 121 247 t b f;
#X obj 71 279 pack 0 0 0;
#X obj 71 215 i;
#X obj 98 215 i;
#X obj 128 215 i;
#X obj 179 216 loadbang;
#X obj 179 241 f \$1;
#X obj 179 266 + 1;
#X floatatom 115 319 5 0 0 0 - - - 0;
#X obj 71 343 array set DMX;
#X connect 0 0 8 0;
#X connect 1 0 5 0;
#X connect 1 1 5 1;
#X connect 2 0 6 0;
#X connect 3 0 7 0;
#X connect 4 0 5 0;
#X connect 4 1 5 2;
#X connect 5 0 13 0;
#X connect 6 0 5 0;
#X connect 7 0 1 0;
#X connect 8 0 4 0;
#X connect 9 0 10 0;
#X connect 10 0 11 0;
#X connect 11 0 12 0;
#X connect 12 0 13 1;
#X coords 0 -1 1 1 133 80 1 100 100;
