#N canvas 185 193 748 630 12;
#X obj 77 299 list length;
#X obj 77 326 + 1;
#X obj 77 268 t l l, f 16;
#X msg 77 350 126 6 \$1 0 0;
#X obj 77 405 list append 231;
#X obj 77 211 cyclone/zl.change;
#X obj 77 238 route list;
#X obj 76 184 list store;
#X obj 77 448 comport 1 57600;
#X msg 17 351 devices;
#X msg 17 393 close;
#X obj 76 45 metro 25;
#X obj 76 20 tgl 19 0 empty empty empty 0 -10 0 12 #fcfcfc #000000 #000000 0 1;
#X obj 77 377 list, f 16;
#X msg 17 372 open 1;
#X obj 76 69 t b b;
#X obj 215 128 array get DMX;
#X obj 215 155 list prepend set;
#X msg 215 201 0 0 255 0 255 0 0 255 0 255 0 0 255 0 255 0 0 255 0 255 0 0 255 0 255 0 0 255 0 255 0 0 255 0 255 0 0 255 0 255 0 0 255 0 255 0 0 0 0 212 0 0 255 0 255 0 0 255 0 255 0 0 255 0 255 0 0 255 0 255 0 0 255 0 255 0 0 255 0 255 0 0 255 0 255 0 0 255 0 255 0 0 255 0 255 0 0 255 0 255 0 0 255 0 255 0 0 255 0 255 0 0 255 0 255 0 0 255 0 255 0 0 255 0 255 0 0 255 0 255 0 0 255 0 255 0 0 255 0 255 0 0 255 0 255 0 0 255 0 255 0 0 255 0 255 0 0 255 0 255 0 0 255 0 255 0 0 255 0 255 0 0 255 0 255 0 0 255 0 255 0 0 255 0 255 0 0 255 0 255 0 0 255 0 255 0 0 0 0 0;
#X obj 215 177 list trim;
#X obj 215 98 array define DMX 200;
#N canvas 234 327 1099 620 orbisfly 1;
#X obj 5 6 cnv 19 150 600 empty empty empty 20 12 0 12 #000000 #ffffff 0;
#X obj 7 8 cnv 19 146 596 empty empty empty 20 12 0 12 #ffffff #ffffff 0;
#X obj 13 16 ch_dmx 1;
#X obj 13 116 ch_dmx 6;
#X obj 13 216 ch_dmx 11;
#X obj 13 316 ch_dmx 16;
#X obj 13 416 ch_dmx 21;
#X obj 13 516 ch_dmx 26;
#X obj 159 6 cnv 19 150 600 empty empty empty 20 12 0 12 #000000 #ffffff 0;
#X obj 161 8 cnv 19 146 596 empty empty empty 20 12 0 12 #ffffff #ffffff 0;
#X obj 313 6 cnv 19 150 600 empty empty empty 20 12 0 12 #000000 #ffffff 0;
#X obj 315 8 cnv 19 146 596 empty empty empty 20 12 0 12 #ffffff #ffffff 0;
#X obj 467 6 cnv 19 150 600 empty empty empty 20 12 0 12 #000000 #ffffff 0;
#X obj 469 8 cnv 19 146 596 empty empty empty 20 12 0 12 #ffffff #ffffff 0;
#X obj 621 6 cnv 19 150 600 empty empty empty 20 12 0 12 #000000 #ffffff 0;
#X obj 623 8 cnv 19 146 596 empty empty empty 20 12 0 12 #ffffff #ffffff 0;
#X obj 775 6 cnv 19 150 600 empty empty empty 20 12 0 12 #000000 #ffffff 0;
#X obj 777 8 cnv 19 146 596 empty empty empty 20 12 0 12 #ffffff #ffffff 0;
#X obj 929 6 cnv 19 150 600 empty empty empty 20 12 0 12 #000000 #ffffff 0;
#X obj 931 8 cnv 19 146 596 empty empty empty 20 12 0 12 #ffffff #ffffff 0;
#X obj 167 16 ch_dmx 31;
#X obj 167 116 ch_dmx 36;
#X obj 167 216 ch_dmx 41;
#X obj 167 316 ch_dmx 46;
#X obj 167 416 ch_dmx 51;
#X obj 321 16 ch_dmx 56;
#X obj 321 116 ch_dmx 61;
#X obj 321 216 ch_dmx 66;
#X obj 321 316 ch_dmx 71;
#X obj 321 416 ch_dmx 76;
#X obj 321 516 ch_dmx 81;
#X obj 475 16 ch_dmx 86;
#X obj 475 116 ch_dmx 91;
#X obj 475 216 ch_dmx 96;
#X obj 475 316 ch_dmx 101;
#X obj 475 416 ch_dmx 106;
#X obj 629 16 ch_dmx 111;
#X obj 629 116 ch_dmx 116;
#X obj 629 216 ch_dmx 121;
#X obj 629 316 ch_dmx 126;
#X obj 629 416 ch_dmx 131;
#X obj 629 516 ch_dmx 136;
#X obj 783 16 ch_dmx 141;
#X obj 783 116 ch_dmx 146;
#X obj 783 216 ch_dmx 151;
#X obj 783 316 ch_dmx 156;
#X obj 783 416 ch_dmx 161;
#X obj 937 16 ch_dmx 166;
#X obj 937 116 ch_dmx 171;
#X obj 937 216 ch_dmx 176;
#X obj 937 316 ch_dmx 181;
#X obj 937 416 ch_dmx 186;
#X obj 937 516 ch_dmx 191;
#X restore 214 67 pd orbisfly;
#X obj 221 398 hsl 256 20 0 255 0 0 empty empty empty -2 -10 0 12 #ffffff #ff0400 #000000 0 1;
#X msg 218 428 \; rojo_receive \$1;
#X obj 221 471 hsl 256 20 0 255 0 0 empty empty empty -2 -10 0 12 #ffffff #00ff04 #000000 0 1;
#X msg 218 495 \; verde_receive \$1;
#X obj 222 541 hsl 256 20 0 255 0 0 empty empty empty -2 -10 0 12 #ffffff #0400ff #000000 0 1;
#X msg 219 565 \; azul_receive \$1;
#X msg 536 486 \; DMX const 0;
#X msg 536 524 \; rojo_receive 0 \; verde_receive 0 \; azul_receive 0;
#X connect 0 0 1 0;
#X connect 1 0 3 0;
#X connect 2 0 0 0;
#X connect 2 1 13 1;
#X connect 3 0 13 0;
#X connect 4 0 8 0;
#X connect 5 0 6 0;
#X connect 6 0 2 0;
#X connect 7 0 5 0;
#X connect 9 0 8 0;
#X connect 10 0 8 0;
#X connect 11 0 15 0;
#X connect 12 0 11 0;
#X connect 13 0 4 0;
#X connect 14 0 8 0;
#X connect 15 0 7 0;
#X connect 15 1 16 0;
#X connect 16 0 17 0;
#X connect 16 0 7 1;
#X connect 17 0 19 0;
#X connect 19 0 18 0;
#X connect 22 0 23 0;
#X connect 24 0 25 0;
#X connect 26 0 27 0;
