#N canvas 210 383 1633 866 12;
#X obj 92 474 list length;
#X obj 92 501 + 1;
#X obj 92 443 t l l, f 16;
#X msg 92 525 126 6 \$1 0 0;
#X obj 92 580 list append 231;
#X obj 82 175 pack 0 0 0 0 0;
#X obj 82 139 t b f;
#X obj 92 386 cyclone/zl.change;
#X obj 92 413 route list;
#X obj 91 359 list store;
#X obj 92 623 comport 1 57600;
#X msg 32 526 devices;
#X msg 32 568 close;
#X obj 76 259 metro 25;
#X obj 76 234 tgl 19 0 empty empty empty 0 -10 0 12 #fcfcfc #000000 #000000 0 1;
#X obj 84 67 hsl 256 20 0 255 0 0 empty empty empty -2 -10 0 12 #ffffff #0400ff #000000 0 1;
#X obj 123 139 t b f;
#X obj 84 89 hsl 256 20 0 255 0 0 empty empty empty -2 -10 0 12 #ffffff #ff0400 #000000 0 1;
#X obj 84 111 hsl 256 20 0 255 0 0 empty empty empty -2 -10 0 12 #ffffff #00ff04 #000000 0 1;
#X obj 164 139 t b f;
#X obj 343 552 list length;
#X floatatom 343 578 5 0 0 0 - - - 0;
#X obj 439 529 list prepend set;
#X msg 439 575 0 0 0 215 255 0 0 255 0 254 0 0 255 255 0 0 0 0 0 0 0 0 0;
#X obj 439 551 list trim;
#X obj 364 174 pack 0 0 0 0 0;
#X obj 364 138 t b f;
#X obj 366 66 hsl 256 20 0 255 0 0 empty empty empty -2 -10 0 12 #ffffff #0400ff #000000 0 1;
#X obj 405 138 t b f;
#X obj 366 88 hsl 256 20 0 255 0 0 empty empty empty -2 -10 0 12 #ffffff #ff0400 #000000 0 1;
#X obj 366 110 hsl 256 20 0 255 0 0 empty empty empty -2 -10 0 12 #ffffff #00ff04 #000000 0 1;
#X obj 446 138 t b f;
#X obj 92 552 list, f 16;
#X obj 145 226 list append;
#X obj 225 202 t b l;
#X obj 660 68 hsl 256 20 0 255 0 0 empty empty empty -2 -10 0 12 #ffffff #0400ff #000000 0 1;
#X obj 699 140 t b f;
#X obj 660 90 hsl 256 20 0 255 0 0 empty empty empty -2 -10 0 12 #ffffff #ff0400 #000000 0 1;
#X obj 660 112 hsl 256 20 0 255 0 0 empty empty empty -2 -10 0 12 #ffffff #00ff04 #000000 0 1;
#X obj 740 140 t b f;
#X obj 148 250 list append;
#X obj 654 199 t b l;
#X obj 651 139 t b f;
#X obj 658 176 pack 0 0 0 0 0;
#X msg 32 547 open 1;
#X obj 722 270 t b f;
#X floatatom 724 244 5 0 0 0 - - - 0;
#X obj 705 389 pack 0 0 255 0 0 0 0 0 0 0;
#X obj 781 271 t b f;
#X floatatom 783 245 5 0 0 0 - - - 0;
#X obj 847 272 t b f;
#X floatatom 849 246 5 0 0 0 - - - 0;
#X obj 844 571 random 255;
#X obj 783 697 pack 0 0 255 0 0 0 0 0 0 0;
#X obj 836 628 line;
#X obj 841 597 pack 0 1000;
#X obj 938 569 random 255;
#X obj 930 626 line;
#X obj 935 595 pack 0 1000;
#X obj 1046 566 random 255;
#X obj 1038 623 line;
#X obj 1043 592 pack 0 1000;
#X obj 886 492 t b b b;
#X obj 890 463 metro 1000;
#X obj 890 435 tgl 19 0 empty empty empty 0 -10 0 12 #fcfcfc #000000 #000000 0 1;
#X obj 788 500 metro 25;
#X obj 82 288 t b b;
#X floatatom 954 426 5 0 0 0 - - - 0;
#X floatatom 999 451 5 0 0 0 - - - 0;
#X obj 439 493 pack 0 0 0 0 0 0 0 0 0 0 0 0 0 0 0 0 0 0 0 0 0 0 0;
#X obj 1100 348 list prepend set;
#X msg 1100 394 0 0 255 0 0;
#X obj 1100 370 list trim;
#X obj 1183 237 pack 0 0 0 2;
#X obj 1244 350 list prepend set;
#X msg 1244 396 0 0 255 0 0;
#X obj 1244 372 list trim;
#X msg 1246 494 255 0 0;
#X floatatom 1349 514 5 0 0 0 - - - 0;
#X obj 1271 544 pack 0 0 0 2;
#X obj 1272 603 list prepend set;
#X msg 1272 649 255 0 0 8;
#X obj 1272 625 list trim;
#X msg 1325 471 32 12;
#X obj 1198 483 bng 19 250 50 0 empty empty empty 0 -10 0 12 #fcfcfc #000000 #000000;
#X obj 1194 744 list;
#X obj 368 282 r dmx;
#N canvas 92 117 1235 504 paquetes 1;
#X obj 65 275 pack 0 0 0 0 0 0 0 0 0 0 0 0 0 0 0 0 0 0 0 0 0 0 0 0 0 0 0 0 0 0 0 0 0 0 0 0 0 0 0 0 0 0 0 0 0 0 0 0 0 0 0 0 0 0 0 0 0 0 0 0 0 0 0 0 0 0 0 0 0 0 0 0 0 0 0 0 0 0 0 0 0 0 0 0 0 0 0 0 0 0 0 0 0 0 0 0 0 0 0 0 0 0 0 0 0 0 0 0 0 0 0 0 0 0 0 0 0 0 0 0 0 0 0 0 0 0 0 0 0 0 0 0 0 0 0 0 0 0 0 0 0 0 0 0 0 0 0 0 0 0 0 0 0 0 0 0 0 0 0 0 0 0 0 0 0 0 0 0 0 0 0 0 0 0 0 0 0 0 0 0 0 0 0 0 0 0 0 0 0 0 0 0 0 0 0 0 0 0 0 0 0 0 0 0 0 0 0 0 0 0 0 0 0 0 0 0 0 0 0 0 0 0 0 0 0 0 0 0 0 0 0 0 0 0 0 0 0 0 0 0, f 343;
#X obj 82 191 unpack 0 0 0;
#X obj 208 193 unpack 0 0 0;
#X obj 65 316 s dmx;
#X obj 336 190 unpack 0 0 0;
#X obj 183 132 route 1 2 3;
#X obj 86 107 t b a;
#X obj 86 78 inlet;
#X connect 0 0 3 0;
#X connect 1 0 0 2;
#X connect 1 1 0 3;
#X connect 1 2 0 4;
#X connect 2 0 0 7;
#X connect 2 1 0 8;
#X connect 2 2 0 9;
#X connect 4 0 0 12;
#X connect 4 1 0 13;
#X connect 4 2 0 14;
#X connect 5 0 1 0;
#X connect 5 1 2 0;
#X connect 5 2 4 0;
#X connect 6 0 0 0;
#X connect 6 1 5 0;
#X connect 7 0 6 0;
#X restore 1182 267 pd paquetes;
#X obj 1118 -13 metro 1000;
#X obj 1118 -41 tgl 19 0 empty empty empty 0 -10 0 12 #fcfcfc #000000 #000000 0 1;
#X obj 1140 117 + 1;
#X floatatom 1226 -31 5 0 0 0 - - - 0;
#X obj 1099 106 f;
#X obj 1113 148 % 3;
#X obj 1125 184 + 1;
#X obj 1151 210 t f f;
#X obj 1337 192 f;
#X obj 1334 232 pack 0 0 0 0;
#X obj 1124 51 t b b b b b;
#X msg 1248 110 0;
#X msg 1199 111 180;
#X msg 1295 112 255;
#X connect 0 0 1 0;
#X connect 1 0 3 0;
#X connect 2 0 0 0;
#X connect 2 1 32 1;
#X connect 3 0 32 0;
#X connect 4 0 10 0;
#X connect 5 0 33 0;
#X connect 6 0 5 0;
#X connect 6 1 5 2;
#X connect 7 0 8 0;
#X connect 8 0 2 0;
#X connect 9 0 7 0;
#X connect 11 0 10 0;
#X connect 12 0 10 0;
#X connect 13 0 66 0;
#X connect 14 0 13 0;
#X connect 15 0 6 0;
#X connect 16 0 5 0;
#X connect 16 1 5 3;
#X connect 17 0 16 0;
#X connect 18 0 19 0;
#X connect 19 0 5 0;
#X connect 19 1 5 4;
#X connect 20 0 21 0;
#X connect 22 0 24 0;
#X connect 24 0 23 0;
#X connect 25 0 34 0;
#X connect 26 0 25 0;
#X connect 26 1 25 2;
#X connect 27 0 26 0;
#X connect 28 0 25 0;
#X connect 28 1 25 3;
#X connect 29 0 28 0;
#X connect 30 0 31 0;
#X connect 31 0 25 0;
#X connect 31 1 25 4;
#X connect 32 0 4 0;
#X connect 33 0 40 0;
#X connect 34 0 5 0;
#X connect 34 1 33 1;
#X connect 35 0 42 0;
#X connect 36 0 43 0;
#X connect 36 1 43 3;
#X connect 37 0 36 0;
#X connect 38 0 39 0;
#X connect 39 0 43 0;
#X connect 39 1 43 4;
#X connect 40 0 69 0;
#X connect 41 0 5 0;
#X connect 41 1 40 1;
#X connect 42 0 43 0;
#X connect 42 1 43 2;
#X connect 43 0 41 0;
#X connect 44 0 10 0;
#X connect 45 0 47 0;
#X connect 45 1 47 2;
#X connect 46 0 45 0;
#X connect 47 0 9 1;
#X connect 48 0 47 0;
#X connect 48 1 47 3;
#X connect 49 0 48 0;
#X connect 50 0 47 0;
#X connect 50 1 47 4;
#X connect 51 0 50 0;
#X connect 52 0 55 0;
#X connect 53 0 9 1;
#X connect 54 0 53 2;
#X connect 55 0 54 0;
#X connect 56 0 58 0;
#X connect 57 0 53 3;
#X connect 58 0 57 0;
#X connect 59 0 61 0;
#X connect 60 0 53 4;
#X connect 61 0 60 0;
#X connect 62 0 52 0;
#X connect 62 1 56 0;
#X connect 62 2 59 0;
#X connect 63 0 62 0;
#X connect 64 0 63 0;
#X connect 66 0 9 0;
#X connect 67 0 63 1;
#X connect 67 0 55 1;
#X connect 67 0 58 1;
#X connect 67 0 61 1;
#X connect 69 0 20 0;
#X connect 69 0 9 1;
#X connect 69 0 22 0;
#X connect 70 0 72 0;
#X connect 72 0 71 0;
#X connect 73 0 87 0;
#X connect 74 0 76 0;
#X connect 76 0 75 0;
#X connect 77 0 79 0;
#X connect 78 0 79 3;
#X connect 79 0 80 0;
#X connect 80 0 82 0;
#X connect 82 0 81 0;
#X connect 83 0 79 1;
#X connect 84 0 79 0;
#X connect 86 0 9 1;
#X connect 88 0 98 0;
#X connect 89 0 88 0;
#X connect 90 0 92 1;
#X connect 91 0 88 1;
#X connect 92 0 90 0;
#X connect 92 0 93 0;
#X connect 93 0 94 0;
#X connect 94 0 95 0;
#X connect 95 0 73 0;
#X connect 95 1 96 1;
#X connect 96 0 97 0;
#X connect 97 0 87 0;
#X connect 98 0 92 0;
#X connect 98 1 100 0;
#X connect 98 2 99 0;
#X connect 98 3 101 0;
#X connect 98 4 96 0;
#X connect 99 0 73 2;
#X connect 100 0 73 1;
#X connect 101 0 73 3;
