#N canvas 37 25 1920 1027 12;
#X obj 92 474 list length;
#X obj 92 501 + 1;
#X obj 92 443 t l l, f 16;
#X msg 92 525 126 6 \$1 0 0;
#X obj 92 580 list append 231;
#X obj 82 175 pack 0 0 0 0 0;
#X obj 82 139 t b f;
#X obj 92 386 cyclone/zl.change;
#X obj 92 413 route list;
#X obj 91 359 list store;
#X obj 92 623 comport 1 57600;
#X msg 32 526 devices;
#X msg 32 568 close;
#X obj 76 259 metro 25;
#X obj 76 234 tgl 19 0 empty empty empty 0 -10 0 12 #fcfcfc #000000 #000000 0 1;
#X obj 84 67 hsl 256 20 0 255 0 0 empty empty empty -2 -10 0 12 #ffffff #0400ff #000000 0 1;
#X obj 123 139 t b f;
#X obj 84 89 hsl 256 20 0 255 0 0 empty empty empty -2 -10 0 12 #ffffff #ff0400 #000000 0 1;
#X obj 84 111 hsl 256 20 0 255 0 0 empty empty empty -2 -10 0 12 #ffffff #00ff04 #000000 0 1;
#X obj 164 139 t b f;
#X obj 343 552 list length;
#X floatatom 343 578 5 0 0 0 - - - 0;
#X obj 439 529 list prepend set;
#X msg 439 575 0 0 169 0 0 0 0 0 255 0 0 0 0 0 0 0 0 0 0 0 0 0 0;
#X obj 439 551 list trim;
#X obj 364 174 pack 0 0 0 0 0;
#X obj 364 138 t b f;
#X obj 366 66 hsl 256 20 0 255 0 0 empty empty empty -2 -10 0 12 #ffffff #0400ff #000000 0 1;
#X obj 405 138 t b f;
#X obj 366 88 hsl 256 20 0 255 0 0 empty empty empty -2 -10 0 12 #ffffff #ff0400 #000000 0 1;
#X obj 366 110 hsl 256 20 0 255 0 0 empty empty empty -2 -10 0 12 #ffffff #00ff04 #000000 0 1;
#X obj 446 138 t b f;
#X obj 92 552 list, f 16;
#X obj 145 226 list append;
#X obj 225 202 t b l;
#X obj 660 68 hsl 256 20 0 255 0 0 empty empty empty -2 -10 0 12 #ffffff #0400ff #000000 0 1;
#X obj 699 140 t b f;
#X obj 660 90 hsl 256 20 0 255 0 0 empty empty empty -2 -10 0 12 #ffffff #ff0400 #000000 0 1;
#X obj 660 112 hsl 256 20 0 255 0 0 empty empty empty -2 -10 0 12 #ffffff #00ff04 #000000 0 1;
#X obj 740 140 t b f;
#X obj 148 250 list append;
#X obj 654 199 t b l;
#X obj 651 139 t b f;
#X obj 658 176 pack 0 0 0 0 0;
#X msg 32 547 open 1;
#X obj 722 270 t b f;
#X floatatom 724 244 5 0 0 0 - - - 0;
#X obj 705 389 pack 0 0 255 0 0 0 0 0 0 0;
#X obj 781 271 t b f;
#X floatatom 783 245 5 0 0 0 - - - 0;
#X obj 847 272 t b f;
#X floatatom 849 246 5 0 0 0 - - - 0;
#X obj 844 571 random 255;
#X obj 783 697 pack 0 0 255 0 0 0 0 0 0 0;
#X obj 836 628 line;
#X obj 841 597 pack 0 1000;
#X obj 938 569 random 255;
#X obj 930 626 line;
#X obj 935 595 pack 0 1000;
#X obj 1046 566 random 255;
#X obj 1038 623 line;
#X obj 1043 592 pack 0 1000;
#X obj 886 492 t b b b;
#X obj 890 463 metro 1000;
#X obj 890 435 tgl 19 0 empty empty empty 0 -10 0 12 #fcfcfc #000000 #000000 0 1;
#X obj 788 500 metro 25;
#X obj 82 288 t b b;
#X floatatom 954 426 5 0 0 0 - - - 0;
#X floatatom 999 451 5 0 0 0 - - - 0;
#X obj 439 493 pack 0 0 0 0 0 0 0 0 0 0 0 0 0 0 0 0 0 0 0 0 0 0 0;
#X obj 1100 348 list prepend set;
#X msg 1100 394 0 0 255 0 0;
#X obj 1100 370 list trim;
#X obj 1183 237 pack 0 0 0 2;
#X obj 1244 350 list prepend set;
#X msg 1244 396 0 0 255 0 0;
#X obj 1244 372 list trim;
#X msg 1246 494 255 0 0;
#X floatatom 1349 514 5 0 0 0 - - - 0;
#X obj 1271 544 pack 0 0 0 2;
#X obj 1272 603 list prepend set;
#X msg 1272 649 255 0 0 8;
#X obj 1272 625 list trim;
#X msg 1325 471 32 12;
#X obj 1198 483 bng 19 250 50 0 empty empty empty 0 -10 0 12 #fcfcfc #000000 #000000;
#X obj 1194 744 list;
#X obj 368 282 r dmx;
#N canvas 92 117 1235 504 paquetes 0;
#X obj 300 396 pack 0 0 0 0 0 0 0 0 0 0 0 0 0 0 0 0 0 0 0 0 0 0 0 0 0 0 0 0 0 0 0 0 0 0 0 0 0 0 0 0 0 0 0 0 0 0 0 0 0 0 0 0 0 0 0 0 0 0 0 0 0 0 0 0 0 0 0 0 0 0 0 0 0 0 0 0 0 0 0 0 0 0 0 0 0 0 0 0 0 0 0 0 0 0 0 0 0 0 0 0 0 0 0 0 0 0 0 0 0 0 0 0 0 0 0 0 0 0 0 0 0 0 0 0 0 0 0 0 0 0 0 0 0 0 0 0 0 0 0 0 0 0 0 0 0 0 0 0 0 0 0 0 0 0 0 0 0 0 0 0 0 0 0 0 0 0 0 0 0 0 0 0 0 0 0 0 0 0 0 0 0 0 0 0 0 0 0 0 0 0 0 0 0 0 0 0 0 0 0 0 0 0 0 0 0 0 0 0 0 0 0 0 0 0 0 0 0 0 0 0 0 0 0 0 0 0 0 0 0 0 0 0 0 0 0 0 0 0 0 0, f 343;
#X obj 82 191 unpack 0 0 0;
#X obj 208 193 unpack 0 0 0;
#X obj 65 316 s dmx;
#X obj 336 190 unpack 0 0 0;
#X obj 86 107 t b a;
#X obj 86 78 inlet;
#X obj 466 186 unpack 0 0 0;
#X obj 300 79 route 1 2 3 4 5 6 7 8 9 10;
#X obj 573 185 unpack 0 0 0;
#X obj 701 172 unpack 0 0 0;
#X obj 836 169 unpack 0 0 0;
#X obj 954 171 unpack 0 0 0;
#X connect 0 0 3 0;
#X connect 1 0 0 2;
#X connect 1 1 0 3;
#X connect 1 2 0 4;
#X connect 2 0 0 7;
#X connect 2 1 0 8;
#X connect 2 2 0 9;
#X connect 4 0 0 12;
#X connect 4 1 0 13;
#X connect 4 2 0 14;
#X connect 5 0 0 0;
#X connect 5 1 8 0;
#X connect 6 0 5 0;
#X connect 7 0 0 17;
#X connect 7 1 0 18;
#X connect 7 2 0 19;
#X connect 8 0 1 0;
#X connect 8 1 2 0;
#X connect 8 2 4 0;
#X connect 8 3 7 0;
#X connect 8 4 9 0;
#X connect 8 5 10 0;
#X connect 8 6 11 0;
#X connect 8 7 12 0;
#X connect 9 0 0 22;
#X connect 9 1 0 23;
#X connect 9 2 0 24;
#X connect 10 0 0 27;
#X connect 10 1 0 28;
#X connect 10 2 0 29;
#X connect 11 0 0 32;
#X connect 11 1 0 33;
#X connect 11 2 0 34;
#X connect 12 0 0 37;
#X connect 12 1 0 38;
#X connect 12 2 0 39;
#X restore 1182 267 pd paquetes;
#X obj 1118 -13 metro 1000;
#X obj 1118 -41 tgl 19 0 empty empty empty 0 -10 0 12 #fcfcfc #000000 #000000 0 1;
#X obj 1140 117 + 1;
#X floatatom 1226 -31 5 0 0 0 - - - 0;
#X obj 1099 106 f;
#X obj 1125 184 + 1;
#X obj 1151 210 t f f;
#X obj 1337 192 f;
#X obj 1334 232 pack 0 0 0 0;
#X obj 1124 51 t b b b b b;
#X obj 1113 148 % 8;
#X msg 1313 128 255;
#N canvas 842 1232 1036 484 presets 1;
#X msg 57 73 0 0 255 255 255 0 0 255 255 255 0 0 255 255 255 0 0 255 255 255 0 0 255 255 255 0 0 255 255 255 0 0 255 255 255 0 0 255 255 255 0 0 255 255 255 0 0 255 255 255 0 0 255 255 255 0 0 255 255 255 0 0 255 255 255 0 0 255 255 255 0 0 255 255 255 0 0 255 255 255;
#X obj 152 272 outlet;
#X msg 352 199 0 0 255 0 0 0 0 255 128 0 0 0 255 255 0 0 0 0 255 0 0 0 0 255 128 0 0 0 0 255 0 0 128 255 0 0 255 0 255, f 80;
#X msg 348 373 0 0 255 0 0 0 0 255 128 0 0 0 255 255 0 0 0 0 255 0 0 0 0 255 128 0 0 0 0 255 0 0 128 0 255 0 0 255 0 255 0 0 255 255 255 0 0 0 0 0, f 80;
#X connect 0 0 1 0;
#X connect 2 0 1 0;
#X connect 3 0 1 0;
#X restore 524 294 pd presets;
#X obj 1340 93 random 255;
#X obj 1238 102 random 255;
#X obj 1171 140 random 255;
#X obj 1468 135 array get DMX;
#X obj 1468 101 bng 19 250 50 0 empty empty empty 0 -10 0 12 #fcfcfc #000000 #000000;
#X obj 1469 162 list prepend set;
#X msg 1469 208 106 64 58 0 0 92 110 212 0 0 0 0 212 112 0 0 0 212 0 0 0 0 212 0 0 0 0 184 16 108 0 0 212 0 0 0 0 212 0 0 0 0 212 0 0 0 0 212 0 0 0 0 212 0 0 0 0 212 0 0 0 0 212 0 0 0 0 212 0 0 0 0 212 0 0 0 0 212 0 0 0 0 212 0 0 0 0 212 0 0 0 0 212 0 0 0 0 212 0 0 0 0 212 0 0 0 0 212 0 0 0 0 212 0 0 0 0 212 0 0 0 0 212 0 0 0 0 212 0 0 0 0 212 0 0 0 0 212 0 0 0 0 212 0 0 0 0 212 0 0 0 0 212 0 0 0 0 212 0 0 0 0 212 0 0 0 0 212 0 0 0 0 212 0 0 0 0 212 0 0 0 0 212 0 0 0 0 212 0 0 0 0 212 0 0 0 0 0 0 0;
#X obj 1469 184 list trim;
#X obj 1513 106 metro 100;
#X obj 1513 77 tgl 19 0 empty empty empty 0 -10 0 12 #fcfcfc #000000 #000000 0 1;
#X obj 1503 -18 array define DMX 200;
#N canvas 92 80 1099 620 orbisfly 0;
#X obj 5 6 cnv 19 150 600 empty empty empty 20 12 0 12 #000000 #ffffff 0;
#X obj 7 8 cnv 19 146 596 empty empty empty 20 12 0 12 #ffffff #ffffff 0;
#X obj 13 16 ch_dmx 1;
#X obj 13 116 ch_dmx 6;
#X obj 13 216 ch_dmx 11;
#X obj 13 316 ch_dmx 16;
#X obj 13 416 ch_dmx 21;
#X obj 13 516 ch_dmx 26;
#X obj 159 6 cnv 19 150 600 empty empty empty 20 12 0 12 #000000 #ffffff 0;
#X obj 161 8 cnv 19 146 596 empty empty empty 20 12 0 12 #ffffff #ffffff 0;
#X obj 313 6 cnv 19 150 600 empty empty empty 20 12 0 12 #000000 #ffffff 0;
#X obj 315 8 cnv 19 146 596 empty empty empty 20 12 0 12 #ffffff #ffffff 0;
#X obj 467 6 cnv 19 150 600 empty empty empty 20 12 0 12 #000000 #ffffff 0;
#X obj 469 8 cnv 19 146 596 empty empty empty 20 12 0 12 #ffffff #ffffff 0;
#X obj 621 6 cnv 19 150 600 empty empty empty 20 12 0 12 #000000 #ffffff 0;
#X obj 623 8 cnv 19 146 596 empty empty empty 20 12 0 12 #ffffff #ffffff 0;
#X obj 775 6 cnv 19 150 600 empty empty empty 20 12 0 12 #000000 #ffffff 0;
#X obj 777 8 cnv 19 146 596 empty empty empty 20 12 0 12 #ffffff #ffffff 0;
#X obj 929 6 cnv 19 150 600 empty empty empty 20 12 0 12 #000000 #ffffff 0;
#X obj 931 8 cnv 19 146 596 empty empty empty 20 12 0 12 #ffffff #ffffff 0;
#X obj 167 16 ch_dmx 31;
#X obj 167 116 ch_dmx 36;
#X obj 167 216 ch_dmx 41;
#X obj 167 316 ch_dmx 46;
#X obj 167 416 ch_dmx 51;
#X obj 321 16 ch_dmx 56;
#X obj 321 116 ch_dmx 61;
#X obj 321 216 ch_dmx 66;
#X obj 321 316 ch_dmx 71;
#X obj 321 416 ch_dmx 76;
#X obj 321 516 ch_dmx 81;
#X obj 475 16 ch_dmx 86;
#X obj 475 116 ch_dmx 91;
#X obj 475 216 ch_dmx 96;
#X obj 475 316 ch_dmx 101;
#X obj 475 416 ch_dmx 106;
#X obj 629 16 ch_dmx 111;
#X obj 629 116 ch_dmx 116;
#X obj 629 216 ch_dmx 121;
#X obj 629 316 ch_dmx 126;
#X obj 629 416 ch_dmx 131;
#X obj 629 516 ch_dmx 136;
#X obj 783 16 ch_dmx 141;
#X obj 783 116 ch_dmx 146;
#X obj 783 216 ch_dmx 151;
#X obj 783 316 ch_dmx 156;
#X obj 783 416 ch_dmx 161;
#X obj 937 16 ch_dmx 166;
#X obj 937 116 ch_dmx 171;
#X obj 937 216 ch_dmx 176;
#X obj 937 316 ch_dmx 181;
#X obj 937 416 ch_dmx 186;
#X obj 937 516 ch_dmx 191;
#X restore 277 688 pd orbisfly;
#X obj 1493 382 hsl 256 20 0 255 0 0 empty empty empty -2 -10 0 12 #ffffff #ff0400 #000000 0 1;
#X msg 1490 412 \; rojo_receive \$1;
#X obj 1493 459 hsl 256 20 0 255 0 0 empty empty empty -2 -10 0 12 #ffffff #00ff04 #000000 0 1;
#X msg 1490 491 \; verde_receive \$1;
#X msg 1494 569 \; verde_receive \$1;
#X obj 1498 539 hsl 256 20 0 255 0 0 empty empty empty -2 -10 0 12 #ffffff #0400ff #000000 0 1;
#X connect 0 0 1 0;
#X connect 1 0 3 0;
#X connect 2 0 0 0;
#X connect 2 1 32 1;
#X connect 3 0 32 0;
#X connect 4 0 10 0;
#X connect 5 0 33 0;
#X connect 6 0 5 0;
#X connect 6 1 5 2;
#X connect 7 0 8 0;
#X connect 8 0 2 0;
#X connect 9 0 7 0;
#X connect 11 0 10 0;
#X connect 12 0 10 0;
#X connect 13 0 66 0;
#X connect 14 0 13 0;
#X connect 15 0 6 0;
#X connect 16 0 5 0;
#X connect 16 1 5 3;
#X connect 17 0 16 0;
#X connect 18 0 19 0;
#X connect 19 0 5 0;
#X connect 19 1 5 4;
#X connect 20 0 21 0;
#X connect 22 0 24 0;
#X connect 24 0 23 0;
#X connect 25 0 34 0;
#X connect 26 0 25 0;
#X connect 26 1 25 2;
#X connect 27 0 26 0;
#X connect 28 0 25 0;
#X connect 28 1 25 3;
#X connect 29 0 28 0;
#X connect 30 0 31 0;
#X connect 31 0 25 0;
#X connect 31 1 25 4;
#X connect 32 0 4 0;
#X connect 33 0 40 0;
#X connect 34 0 5 0;
#X connect 34 1 33 1;
#X connect 35 0 42 0;
#X connect 36 0 43 0;
#X connect 36 1 43 3;
#X connect 37 0 36 0;
#X connect 38 0 39 0;
#X connect 39 0 43 0;
#X connect 39 1 43 4;
#X connect 40 0 69 0;
#X connect 41 0 5 0;
#X connect 41 1 40 1;
#X connect 42 0 43 0;
#X connect 42 1 43 2;
#X connect 43 0 41 0;
#X connect 44 0 10 0;
#X connect 45 0 47 0;
#X connect 45 1 47 2;
#X connect 46 0 45 0;
#X connect 47 0 9 1;
#X connect 48 0 47 0;
#X connect 48 1 47 3;
#X connect 49 0 48 0;
#X connect 50 0 47 0;
#X connect 50 1 47 4;
#X connect 51 0 50 0;
#X connect 52 0 55 0;
#X connect 53 0 9 1;
#X connect 54 0 53 2;
#X connect 55 0 54 0;
#X connect 56 0 58 0;
#X connect 57 0 53 3;
#X connect 58 0 57 0;
#X connect 59 0 61 0;
#X connect 60 0 53 4;
#X connect 61 0 60 0;
#X connect 62 0 52 0;
#X connect 62 1 56 0;
#X connect 62 2 59 0;
#X connect 63 0 62 0;
#X connect 64 0 63 0;
#X connect 66 0 9 0;
#X connect 67 0 63 1;
#X connect 67 0 55 1;
#X connect 67 0 58 1;
#X connect 67 0 61 1;
#X connect 69 0 20 0;
#X connect 69 0 9 1;
#X connect 69 0 22 0;
#X connect 70 0 72 0;
#X connect 72 0 71 0;
#X connect 73 0 87 0;
#X connect 74 0 76 0;
#X connect 76 0 75 0;
#X connect 77 0 79 0;
#X connect 78 0 79 3;
#X connect 79 0 80 0;
#X connect 80 0 82 0;
#X connect 82 0 81 0;
#X connect 83 0 79 1;
#X connect 84 0 79 0;
#X connect 86 0 9 1;
#X connect 88 0 97 0;
#X connect 89 0 88 0;
#X connect 90 0 92 1;
#X connect 91 0 88 1;
#X connect 92 0 90 0;
#X connect 92 0 98 0;
#X connect 93 0 94 0;
#X connect 94 0 73 0;
#X connect 94 1 95 1;
#X connect 95 0 96 0;
#X connect 96 0 87 0;
#X connect 97 0 92 0;
#X connect 97 1 103 0;
#X connect 97 2 102 0;
#X connect 97 3 101 0;
#X connect 97 4 95 0;
#X connect 98 0 93 0;
#X connect 99 0 73 3;
#X connect 100 0 9 1;
#X connect 101 0 73 3;
#X connect 102 0 73 2;
#X connect 103 0 73 1;
#X connect 104 0 106 0;
#X connect 104 0 9 1;
#X connect 105 0 104 0;
#X connect 106 0 108 0;
#X connect 108 0 107 0;
#X connect 109 0 104 0;
#X connect 110 0 109 0;
#X connect 113 0 114 0;
#X connect 115 0 116 0;
#X connect 118 0 117 0;
