#N canvas 709 35 1168 807 12;
#X obj 92 474 list length;
#X obj 92 501 + 1;
#X obj 92 443 t l l, f 16;
#X msg 92 525 126 6 \$1 0 0;
#X obj 92 580 list append 231;
#X obj 82 175 pack 0 0 0 0 0;
#X obj 82 139 t b f;
#X obj 92 386 cyclone/zl.change;
#X obj 92 413 route list;
#X obj 91 359 list store;
#X obj 92 623 comport 1 57600;
#X msg 32 526 devices;
#X msg 32 568 close;
#X obj 91 335 metro 25;
#X obj 91 310 tgl 19 0 empty empty empty 0 -10 0 12 #fcfcfc #000000 #000000 0 1;
#X obj 84 67 hsl 256 20 0 255 0 0 empty empty empty -2 -10 0 12 #ffffff #0400ff #000000 0 1;
#X obj 123 139 t b f;
#X obj 84 89 hsl 256 20 0 255 0 0 empty empty empty -2 -10 0 12 #ffffff #ff0400 #000000 0 1;
#X obj 84 111 hsl 256 20 0 255 0 0 empty empty empty -2 -10 0 12 #ffffff #00ff04 #000000 0 1;
#X obj 164 139 t b f;
#X obj 250 418 list length;
#X floatatom 250 444 5 0 0 0 - - - 0;
#X obj 346 359 pack 0 0 0 0 0 0 0 0 0 0 0 0 0 0 0;
#X obj 346 395 list prepend set;
#X msg 346 441 0 0 255 255 213 0 0 134 106 221 0 0 0 0 0;
#X obj 346 417 list trim;
#X obj 364 174 pack 0 0 0 0 0;
#X obj 364 138 t b f;
#X obj 366 66 hsl 256 20 0 255 0 0 empty empty empty -2 -10 0 12 #ffffff #0400ff #000000 0 1;
#X obj 405 138 t b f;
#X obj 366 88 hsl 256 20 0 255 0 0 empty empty empty -2 -10 0 12 #ffffff #ff0400 #000000 0 1;
#X obj 366 110 hsl 256 20 0 255 0 0 empty empty empty -2 -10 0 12 #ffffff #00ff04 #000000 0 1;
#X obj 446 138 t b f;
#X obj 92 552 list, f 16;
#X obj 145 226 list append;
#X obj 225 202 t b l;
#X obj 660 68 hsl 256 20 0 255 0 0 empty empty empty -2 -10 0 12 #ffffff #0400ff #000000 0 1;
#X obj 699 140 t b f;
#X obj 660 90 hsl 256 20 0 255 0 0 empty empty empty -2 -10 0 12 #ffffff #ff0400 #000000 0 1;
#X obj 660 112 hsl 256 20 0 255 0 0 empty empty empty -2 -10 0 12 #ffffff #00ff04 #000000 0 1;
#X obj 740 140 t b f;
#X obj 148 250 list append;
#X obj 654 199 t b l;
#X obj 651 139 t b f;
#X obj 658 176 pack 0 0 0 0 0;
#X obj 355 326 comport 1 9600;
#X msg 473 288 255 0 0;
#X msg 372 272 \$4 \$5 \$3;
#X msg 572 288 open 1;
#X msg 32 547 open 2;
#X connect 0 0 1 0;
#X connect 1 0 3 0;
#X connect 2 0 0 0;
#X connect 2 1 33 1;
#X connect 3 0 33 0;
#X connect 4 0 10 0;
#X connect 5 0 34 0;
#X connect 5 0 47 0;
#X connect 6 0 5 0;
#X connect 6 1 5 2;
#X connect 7 0 8 0;
#X connect 8 0 2 0;
#X connect 9 0 7 0;
#X connect 11 0 10 0;
#X connect 12 0 10 0;
#X connect 13 0 9 0;
#X connect 14 0 13 0;
#X connect 15 0 6 0;
#X connect 16 0 5 0;
#X connect 16 1 5 3;
#X connect 17 0 16 0;
#X connect 18 0 19 0;
#X connect 19 0 5 0;
#X connect 19 1 5 4;
#X connect 20 0 21 0;
#X connect 22 0 20 0;
#X connect 22 0 9 1;
#X connect 22 0 23 0;
#X connect 23 0 25 0;
#X connect 25 0 24 0;
#X connect 26 0 35 0;
#X connect 27 0 26 0;
#X connect 27 1 26 2;
#X connect 28 0 27 0;
#X connect 29 0 26 0;
#X connect 29 1 26 3;
#X connect 30 0 29 0;
#X connect 31 0 32 0;
#X connect 32 0 26 0;
#X connect 32 1 26 4;
#X connect 33 0 4 0;
#X connect 34 0 41 0;
#X connect 35 0 5 0;
#X connect 35 1 34 1;
#X connect 36 0 43 0;
#X connect 37 0 44 0;
#X connect 37 1 44 3;
#X connect 38 0 37 0;
#X connect 39 0 40 0;
#X connect 40 0 44 0;
#X connect 40 1 44 4;
#X connect 41 0 22 0;
#X connect 42 0 5 0;
#X connect 42 1 41 1;
#X connect 43 0 44 0;
#X connect 43 1 44 2;
#X connect 44 0 42 0;
#X connect 46 0 45 0;
#X connect 47 0 45 0;
#X connect 48 0 45 0;
#X connect 49 0 10 0;
